<svg id="Layer_1" data-name="Layer 1" xmlns="http://www.w3.org/2000/svg" viewBox="0 0 190.22 230.07"><defs><style>.cls-1{fill:#7357a3;}.cls-2{fill:#4664ae;}.cls-3{fill:#fff;}</style></defs><circle class="cls-1" cx="166.21" cy="21.87" r="21.87"/><path class="cls-2" d="M223.11,77.82V229A14.13,14.13,0,0,1,209,243H189.22A14.13,14.13,0,0,1,175.14,229v-4.45a89.15,89.15,0,1,1,0-143.24V77.82a14.13,14.13,0,0,1,14.08-14.08H209A14.13,14.13,0,0,1,223.11,77.82Z" transform="translate(-32.89 -12.96)"/><path class="cls-3" d="M81.11,152.36a.07.07,0,0,1,0-.1l50.6-50.6a5.93,5.93,0,0,0,0-8.36l-4.49-4.49a6,6,0,0,0-8.47,0L64.84,142.72h0a5.72,5.72,0,0,0-.95.77L59.39,148a6,6,0,0,0,0,8.46l59.23,59.23a6,6,0,0,0,8.46,0l4.44-4.44a6,6,0,0,0,0-8.46Z" transform="translate(-32.89 -12.96)"/><path class="cls-3" d="M198.81,167.64a12.23,12.23,0,0,0-6.34.22L182,141.46a7.59,7.59,0,1,0-11.42-5.7l-37.46,11.49a12.27,12.27,0,1,0,1.24,3.17L171.69,139a7.55,7.55,0,0,0,7.09,3.54l10.61,26.77a12.32,12.32,0,1,0,9.42-1.64Z" transform="translate(-32.89 -12.96)"/></svg>