<svg id="Layer_1" data-name="Layer 1" xmlns="http://www.w3.org/2000/svg" viewBox="0 0 400 100"><defs><style>.cls-1{fill:#7357a3;}.cls-2,.cls-4{fill:#4664ae;}.cls-3{fill:#fff;}.cls-4{font-size:16px;font-family:FondyScriptPERSONALUSEONLY, Fondy Script PERSONAL USE ONLY;}</style></defs><circle class="cls-1" cx="69.97" cy="18.27" r="7.62"/><path class="cls-2" d="M78.33,33.24V85.87a4.92,4.92,0,0,1-4.9,4.91h-6.9a4.92,4.92,0,0,1-4.9-4.91V84.32a31,31,0,1,1,0-49.87V33.24a4.92,4.92,0,0,1,4.9-4.9h6.9A4.91,4.91,0,0,1,78.33,33.24Z"/><path class="cls-3" d="M28.89,59.2a0,0,0,0,1,0,0L46.51,41.54a2.06,2.06,0,0,0,0-2.91l-1.57-1.56a2.09,2.09,0,0,0-2.95,0L23.22,55.84h0a1.64,1.64,0,0,0-.33.26l-1.57,1.57a2.08,2.08,0,0,0,0,2.94L42,81.25a2.08,2.08,0,0,0,2.94,0l1.55-1.55a2.08,2.08,0,0,0,0-2.94Z"/><path class="cls-3" d="M69.87,64.52a4.23,4.23,0,0,0-2.21.08L64,55.4a2.6,2.6,0,0,0,1.22-1.67,2.64,2.64,0,0,0-5.15-1.18,2.83,2.83,0,0,0-.05.87l-13,4a4.29,4.29,0,1,0,.43,1.1l13-4a2.61,2.61,0,0,0,1.65,1.17,2.53,2.53,0,0,0,.82.06l3.69,9.32a4.29,4.29,0,1,0,3.28-.57Z"/><path class="cls-2" d="M96.26,52.05H89.69l-1,3.11H84.15l6.37-17.6h5l6.37,17.6H97.31Zm-1.11-3.31L93,42.3l-2.15,6.44Z"/><path class="cls-2" d="M108.06,57a4.7,4.7,0,0,1-1.3,3.72,5.35,5.35,0,0,1-3.64,1.15h-1.67V58.19h1a1.51,1.51,0,0,0,1-.27,1.2,1.2,0,0,0,.3-.91V41.17h4.28Zm-4-17.91a2.27,2.27,0,0,1,0-3.3,2.58,2.58,0,0,1,1.85-.67,2.52,2.52,0,0,1,1.81.67,2.25,2.25,0,0,1,0,3.3,2.52,2.52,0,0,1-1.81.67A2.58,2.58,0,0,1,104.06,39.05Z"/><path class="cls-2" d="M125,41.17v14h-4.29V53.25a4.56,4.56,0,0,1-1.77,1.49,5.32,5.32,0,0,1-2.47.57,5.49,5.49,0,0,1-2.83-.72,4.75,4.75,0,0,1-1.9-2.06,7.1,7.1,0,0,1-.68-3.19V41.17h4.26v7.6A3.06,3.06,0,0,0,116,51a2.52,2.52,0,0,0,1.95.77,2.56,2.56,0,0,0,2-.77,3.06,3.06,0,0,0,.73-2.18v-7.6Z"/><path class="cls-2" d="M140.48,42.61A6.2,6.2,0,0,1,142,47v8.17h-4.26v-7.6a3.06,3.06,0,0,0-.73-2.18,2.55,2.55,0,0,0-2-.77,2.59,2.59,0,0,0-2,.77,3.1,3.1,0,0,0-.73,2.18v7.6H128v-14h4.28V43a4.54,4.54,0,0,1,1.76-1.47,5.54,5.54,0,0,1,2.48-.54A5.06,5.06,0,0,1,140.48,42.61Z"/><path class="cls-2" d="M144.89,44.36a6.12,6.12,0,0,1,2.22-2.51,5.77,5.77,0,0,1,3.14-.88,5.38,5.38,0,0,1,2.59.6,4.47,4.47,0,0,1,1.72,1.58v-2h4.28v14h-4.28v-2a4.67,4.67,0,0,1-1.74,1.58,5.42,5.42,0,0,1-2.6.6,5.72,5.72,0,0,1-3.11-.89,6.25,6.25,0,0,1-2.22-2.53,8.5,8.5,0,0,1-.81-3.8A8.35,8.35,0,0,1,144.89,44.36Zm8.78,1.27a3,3,0,0,0-4.34,0,3.47,3.47,0,0,0-.89,2.52,3.54,3.54,0,0,0,.89,2.54,2.86,2.86,0,0,0,2.17.94,2.93,2.93,0,0,0,2.17-.92,4.06,4.06,0,0,0,0-5.07Z"/><path class="cls-1" d="M171.55,37.56v17.6h-4.29V37.56Z"/><path class="cls-1" d="M177.09,54.73A5.72,5.72,0,0,1,174.83,53a4.5,4.5,0,0,1-.92-2.45h4.23a1.63,1.63,0,0,0,.68,1.18,2.39,2.39,0,0,0,1.48.45,2.11,2.11,0,0,0,1.24-.31,1,1,0,0,0,.44-.82.94.94,0,0,0-.63-.89,13.47,13.47,0,0,0-2-.64,18.57,18.57,0,0,1-2.51-.74,4.32,4.32,0,0,1-1.73-1.22,3.38,3.38,0,0,1-.72-2.27,3.9,3.9,0,0,1,.66-2.2,4.43,4.43,0,0,1,2-1.56,7.38,7.38,0,0,1,3.07-.58,6.23,6.23,0,0,1,4.15,1.3,5.09,5.09,0,0,1,1.74,3.46h-4a1.73,1.73,0,0,0-.64-1.15,2.25,2.25,0,0,0-1.42-.43,2,2,0,0,0-1.15.29.93.93,0,0,0-.4.79,1,1,0,0,0,.64.9,9.38,9.38,0,0,0,2,.61,19.94,19.94,0,0,1,2.53.79,4.33,4.33,0,0,1,1.72,1.25A3.53,3.53,0,0,1,186,51.1a3.66,3.66,0,0,1-.69,2.19,4.61,4.61,0,0,1-2,1.52,7.7,7.7,0,0,1-3,.55A8,8,0,0,1,177.09,54.73Z"/><path class="cls-1" d="M188.61,44.36a6,6,0,0,1,2.22-2.51A5.73,5.73,0,0,1,194,41a5.38,5.38,0,0,1,2.59.6,4.4,4.4,0,0,1,1.72,1.58v-2h4.29v14h-4.29v-2a4.67,4.67,0,0,1-1.74,1.58,5.42,5.42,0,0,1-2.6.6,5.69,5.69,0,0,1-3.1-.89,6.1,6.1,0,0,1-2.22-2.53,8.37,8.37,0,0,1-.82-3.8A8.22,8.22,0,0,1,188.61,44.36Zm8.77,1.27a3,3,0,0,0-4.34,0,3.47,3.47,0,0,0-.89,2.52,3.54,3.54,0,0,0,.89,2.54,2.88,2.88,0,0,0,2.17.94,2.92,2.92,0,0,0,2.17-.92,4.06,4.06,0,0,0,0-5.07Z"/><path class="cls-1" d="M205.63,44.36a6,6,0,0,1,2.21-2.51A5.77,5.77,0,0,1,211,41a5.38,5.38,0,0,1,2.59.6,4.47,4.47,0,0,1,1.72,1.58v-2h4.28v14h-4.28v-2a4.67,4.67,0,0,1-1.74,1.58,5.42,5.42,0,0,1-2.6.6,5.75,5.75,0,0,1-3.11-.89,6.15,6.15,0,0,1-2.21-2.53,8.37,8.37,0,0,1-.82-3.8A8.22,8.22,0,0,1,205.63,44.36Zm8.77,1.27a3,3,0,0,0-4.34,0,3.47,3.47,0,0,0-.89,2.52,3.54,3.54,0,0,0,.89,2.54,2.88,2.88,0,0,0,2.17.94,2.92,2.92,0,0,0,2.17-.92,4.06,4.06,0,0,0,0-5.07Z"/><path class="cls-1" d="M222.72,44.36a6.12,6.12,0,0,1,2.48-2.51,7.39,7.39,0,0,1,3.65-.88,7,7,0,0,1,4.4,1.38,6.5,6.5,0,0,1,2.32,3.88H231a2.19,2.19,0,0,0-2.23-1.6,2.26,2.26,0,0,0-1.88.92,4.2,4.2,0,0,0-.7,2.61,4.21,4.21,0,0,0,.7,2.62,2.26,2.26,0,0,0,1.88.92A2.19,2.19,0,0,0,231,50.1h4.57A6.55,6.55,0,0,1,233.23,54a6.81,6.81,0,0,1-4.38,1.41,7.39,7.39,0,0,1-3.65-.88A6.12,6.12,0,0,1,222.72,52a8.58,8.58,0,0,1,0-7.61Z"/><path class="cls-2" d="M250.24,38.63v3.25h-4.08V55.3h-3.75V41.88h-4.09V38.63Z"/><path class="cls-2" d="M263.61,49.65h-8.49a2.81,2.81,0,0,0,.73,1.88,2.14,2.14,0,0,0,1.59.66,2,2,0,0,0,2-1.29h4a5.93,5.93,0,0,1-1.11,2.35,5.5,5.5,0,0,1-2,1.64,6,6,0,0,1-2.7.6,6.24,6.24,0,0,1-3.21-.83,5.76,5.76,0,0,1-2.2-2.38,8.69,8.69,0,0,1,0-7.22,5.59,5.59,0,0,1,2.19-2.37,6.24,6.24,0,0,1,3.23-.83,6.17,6.17,0,0,1,3.16.81A5.52,5.52,0,0,1,262.9,45a7.45,7.45,0,0,1,.78,3.49A10,10,0,0,1,263.61,49.65Zm-3.77-2.26a2.15,2.15,0,0,0-.66-1.66,2.33,2.33,0,0,0-1.65-.62,2.28,2.28,0,0,0-1.59.59,2.72,2.72,0,0,0-.8,1.69Z"/><path class="cls-2" d="M265.69,45.06a5.61,5.61,0,0,1,2.17-2.37,6.15,6.15,0,0,1,3.2-.83,5.77,5.77,0,0,1,3.85,1.3,6.27,6.27,0,0,1,2,3.68h-4a2,2,0,0,0-3.6-.65,4.27,4.27,0,0,0-.61,2.48,4.22,4.22,0,0,0,.61,2.48,2,2,0,0,0,3.6-.65h4a6.33,6.33,0,0,1-2,3.66,5.75,5.75,0,0,1-3.84,1.33,6.15,6.15,0,0,1-3.2-.83,5.7,5.7,0,0,1-2.17-2.38,8.74,8.74,0,0,1,0-7.22Z"/><path class="cls-2" d="M289.85,43.41a6.24,6.24,0,0,1,1.27,4.15V55.3h-3.73V48.1a3,3,0,0,0-.64-2.06,2.35,2.35,0,0,0-3.42,0,3,3,0,0,0-.64,2.06v7.2h-3.75V37.73h3.75v6.1a4.07,4.07,0,0,1,1.56-1.4,4.66,4.66,0,0,1,2.22-.52A4.22,4.22,0,0,1,289.85,43.41Z"/><path class="cls-2" d="M304.63,43.41a6.19,6.19,0,0,1,1.29,4.15V55.3h-3.73V48.1a3.08,3.08,0,0,0-.64-2.06,2.36,2.36,0,0,0-3.43,0,3.07,3.07,0,0,0-.63,2.06v7.2h-3.76V42.05h3.76V43.8A4.08,4.08,0,0,1,299,42.42a4.61,4.61,0,0,1,2.18-.51A4.28,4.28,0,0,1,304.63,43.41Z"/><path class="cls-2" d="M310.87,54.66a5.9,5.9,0,0,1-2.26-2.38,7.54,7.54,0,0,1-.83-3.61,7.41,7.41,0,0,1,.84-3.59,5.85,5.85,0,0,1,2.28-2.39,6.78,6.78,0,0,1,6.5,0,5.78,5.78,0,0,1,2.28,2.39,8.07,8.07,0,0,1,0,7.19,6,6,0,0,1-2.3,2.39,6.53,6.53,0,0,1-3.26.83A6.4,6.4,0,0,1,310.87,54.66Zm5.07-3.54a4.36,4.36,0,0,0,0-4.89,2.36,2.36,0,0,0-3.63,0,4.52,4.52,0,0,0,0,4.91,2.22,2.22,0,0,0,1.79.85A2.37,2.37,0,0,0,315.94,51.12Z"/><path class="cls-2" d="M326.27,37.73V55.3h-3.76V37.73Z"/><path class="cls-2" d="M331.33,54.66a5.9,5.9,0,0,1-2.26-2.38,7.54,7.54,0,0,1-.83-3.61,7.41,7.41,0,0,1,.84-3.59,5.85,5.85,0,0,1,2.28-2.39,6.78,6.78,0,0,1,6.5,0,5.78,5.78,0,0,1,2.28,2.39,8.07,8.07,0,0,1,0,7.19,6,6,0,0,1-2.3,2.39,6.53,6.53,0,0,1-3.26.83A6.4,6.4,0,0,1,331.33,54.66Zm5.07-3.54a3.56,3.56,0,0,0,.76-2.45,3.63,3.63,0,0,0-.74-2.44,2.36,2.36,0,0,0-3.63,0,4.52,4.52,0,0,0,0,4.91,2.22,2.22,0,0,0,1.79.85A2.35,2.35,0,0,0,336.4,51.12Z"/><path class="cls-2" d="M349.9,42.43a4.15,4.15,0,0,1,1.51,1.49V42.05h3.75V55.27a7.86,7.86,0,0,1-.67,3.31,5.46,5.46,0,0,1-2,2.37,6.27,6.27,0,0,1-3.42.88,6.77,6.77,0,0,1-4.41-1.39,5.39,5.39,0,0,1-1.93-3.77h3.71a1.94,1.94,0,0,0,.83,1.2,2.92,2.92,0,0,0,1.63.44,2.45,2.45,0,0,0,1.85-.72,3.25,3.25,0,0,0,.7-2.32V53.4a4.37,4.37,0,0,1-1.52,1.5,4.28,4.28,0,0,1-2.26.59,4.68,4.68,0,0,1-2.74-.85,5.76,5.76,0,0,1-1.95-2.39,9.46,9.46,0,0,1,0-7.19,5.63,5.63,0,0,1,1.95-2.37,4.81,4.81,0,0,1,2.74-.83A4.42,4.42,0,0,1,349.9,42.43Zm.73,3.84a2.52,2.52,0,0,0-3.8,0,3.46,3.46,0,0,0-.78,2.39,3.55,3.55,0,0,0,.78,2.41,2.48,2.48,0,0,0,3.8,0,4.08,4.08,0,0,0,0-4.8Z"/><path class="cls-2" d="M358.16,40a2.26,2.26,0,0,1,0-3.13,2.35,2.35,0,0,1,3.2,0,2.26,2.26,0,0,1,0,3.13,2.35,2.35,0,0,1-3.2,0Zm3.48,2V55.3h-3.76V42.05Z"/><path class="cls-2" d="M375.84,49.65h-8.5a2.87,2.87,0,0,0,.74,1.88,2.14,2.14,0,0,0,1.59.66,2,2,0,0,0,2-1.29h4a5.93,5.93,0,0,1-1.11,2.35,5.45,5.45,0,0,1-2,1.64,6,6,0,0,1-2.7.6,6.18,6.18,0,0,1-3.2-.83,5.76,5.76,0,0,1-2.2-2.38,8.69,8.69,0,0,1,0-7.22,5.59,5.59,0,0,1,2.19-2.37,6.23,6.23,0,0,1,3.22-.83,6.12,6.12,0,0,1,3.16.81,5.48,5.48,0,0,1,2.17,2.3,7.45,7.45,0,0,1,.78,3.49C375.91,48.84,375.88,49.23,375.84,49.65Zm-3.78-2.26a2.18,2.18,0,0,0-.65-1.66,2.33,2.33,0,0,0-1.65-.62,2.28,2.28,0,0,0-1.59.59,2.72,2.72,0,0,0-.8,1.69Z"/><path class="cls-2" d="M380,54.89a4.94,4.94,0,0,1-2-1.62,4.45,4.45,0,0,1-.82-2.32h3.71a1.59,1.59,0,0,0,.6,1.12,2,2,0,0,0,1.29.42,1.74,1.74,0,0,0,1.09-.29,1,1,0,0,0,.38-.77.9.9,0,0,0-.55-.85A10.61,10.61,0,0,0,382,50a16.5,16.5,0,0,1-2.2-.7,3.8,3.8,0,0,1-1.51-1.17,3.29,3.29,0,0,1-.64-2.14,3.84,3.84,0,0,1,.58-2.08,4,4,0,0,1,1.71-1.49,6.21,6.21,0,0,1,2.69-.54,5.16,5.16,0,0,1,3.64,1.23,5,5,0,0,1,1.52,3.28h-3.47a1.63,1.63,0,0,0-.56-1.09,1.84,1.84,0,0,0-1.24-.41,1.58,1.58,0,0,0-1,.28.9.9,0,0,0-.35.74.93.93,0,0,0,.56.86,8.48,8.48,0,0,0,1.75.57,17,17,0,0,1,2.21.75,3.85,3.85,0,0,1,1.51,1.18,3.9,3.9,0,0,1,.06,4.28A4,4,0,0,1,385.49,55a6.19,6.19,0,0,1-2.62.53A6.56,6.56,0,0,1,380,54.89Z"/><text class="cls-4" transform="translate(109.06 75.52)">Elevating Your Digital Presence</text></svg>